# xmcd CD database file
# Copyright (C) 1993-1998 Ti Kan
#
# Track frame offsets:
# 150
# 16145
# 32210
# 49772
# 67210
# 92360
# 105745
# 123090
# 138072
# 152822
#
# Disc length: 2291 seconds
# Submitted via: CD-Runner 7.0
#
# Revision: 1
# Processed by: cddbd v1.4b41PL1 Copyright (c) Steve Scherf et al.
#
DISCID=7908f10a
DTITLE=Bobby Blue Bland - His California Album
DYEAR=1900
DGENRE=
TTITLE0=This Time I'm Gone For Good
TTITLE1=Up and down World
TTITLE2=It's Not the Spotlight
TTITLE3=If Loving You is Wrong I don't Want to be Right
TTITLE4=Goin' Down Slow
TTITLE5=The Right Place At the Right Time
TTITLE6=Help Me Through The Day
TTITLE7=Where My Baby Went
TTITLE8=Friday The 13th Child
TTITLE9=I've Got to Use My Imagination
EXTD=This was his first California Based ABC - Dunhill REcords after that 
EXTD=\nlabel had absorbed his previous company, Duke Records, and Mr. Ble
EXTD=\nBland's contract.  The 1973 effort was an auspicious new label debut,
EXTD=\nproducint Bland's 22nd R&B top hit ("This Time I'm Gone for Good" hit#5)
EXTD=\nand another top 20 hit ("Goin' Down Slow at #17)  The album also was the
EXTD=\nfirst by Bobby to climb onto the "Top Pop Albums" chart in almost a
EXTD=\ndecade, spending 19 weeks thereon.  Numbers aside, this was and is an
EXTD=\nexcellent representation of Bobbl't coolly expressive brand of blues.
EXTD=\nVVarious
EXTT0=
EXTT1=
EXTT2=
EXTT3=
EXTT4=
EXTT5=
EXTT6=
EXTT7=
EXTT8=
EXTT9=
PLAYORDER=
